<?xml version="1.0" standalone="no"?>
<!DOCTYPE svg PUBLIC "-//W3C//DTD SVG 20010904//EN"
 "http://www.w3.org/TR/2001/REC-SVG-20010904/DTD/svg10.dtd">
<svg version="1.0" xmlns="http://www.w3.org/2000/svg"
 width="150.000000pt" height="50.000000pt" viewBox="0 0 720.000000 139.000000"
 preserveAspectRatio="xMidYMid meet">

<g transform="translate(0.000000,139.000000) scale(0.100000,-0.100000)"
fill="#000000" stroke="none">
<path d="M595 1199 c-132 -77 -261 -152 -287 -166 l-48 -26 0 -336 0 -336 280
-162 c153 -90 284 -164 289 -165 6 -2 139 71 296 162 l285 165 0 335 0 335
-242 140 c-132 77 -262 152 -287 167 l-46 27 -240 -140z m497 -70 c131 -77
243 -137 249 -133 6 3 9 -30 7 -92 l-3 -98 -120 -72 -119 -72 -25 19 c-13 10
-35 19 -48 19 -33 0 -83 -51 -83 -85 0 -35 50 -85 85 -85 28 0 85 48 85 72 0
12 42 40 193 128 l37 22 0 -74 -1 -73 -120 -73 c-113 -69 -120 -72 -141 -58
-12 9 -32 16 -45 16 -31 0 -72 -39 -79 -77 -5 -27 -1 -37 24 -63 17 -16 40
-30 51 -30 19 0 21 -6 21 -72 l0 -73 -84 -47 c-46 -27 -87 -48 -90 -48 -3 0
-5 147 -4 327 l3 328 190 108 c105 59 196 112 204 116 11 7 6 13 -20 26 -19
10 -123 69 -232 132 l-197 115 -198 -115 c-108 -63 -212 -122 -230 -131 -18
-9 -30 -21 -28 -25 3 -4 100 -62 216 -127 l210 -119 0 -98 0 -98 -57 32 c-32
18 -75 42 -95 53 -30 17 -38 27 -38 49 0 36 -49 87 -84 87 -34 0 -75 -38 -82
-77 -5 -27 -1 -37 25 -64 27 -26 37 -30 64 -25 18 4 37 7 42 8 6 1 59 -25 118
-58 l107 -59 0 -83 0 -83 -57 32 c-32 18 -75 42 -95 53 -27 15 -38 28 -38 44
0 31 -52 82 -84 82 -34 0 -75 -38 -82 -77 -5 -27 -1 -37 24 -63 32 -32 56 -37
95 -19 22 10 38 4 131 -47 l106 -59 0 -87 c0 -49 -2 -88 -4 -88 -2 0 -113 62
-247 139 l-244 138 -3 326 c-2 277 0 326 12 321 7 -3 126 60 262 140 137 80
255 144 263 141 8 -3 121 -68 253 -146z m-534 -441 c7 -7 12 -21 12 -33 0 -12
-5 -26 -12 -33 -28 -28 -78 -7 -78 33 0 27 18 45 45 45 12 0 26 -5 33 -12z
m510 -40 c28 -28 7 -78 -33 -78 -27 0 -45 18 -45 45 0 27 18 45 45 45 12 0 26
-5 33 -12z m-510 -190 c7 -7 12 -21 12 -33 0 -12 -5 -26 -12 -33 -7 -7 -21
-12 -33 -12 -40 0 -61 50 -33 78 7 7 21 12 33 12 12 0 26 -5 33 -12z m526 -30
c12 -20 2 -44 -27 -62 -36 -23 -75 36 -46 70 16 19 59 14 73 -8z"/>
<path d="M1684 1035 c9 -14 23 -36 32 -50 l17 -25 246 2 246 3 -3 35 c-5 43
-8 46 -26 31 -11 -9 -75 -12 -232 -11 -199 1 -219 2 -244 20 -40 28 -56 26
-36 -5z"/>
<path d="M4508 1041 c-12 -20 -21 -21 -224 -21 -176 0 -214 3 -224 15 -11 14
-60 22 -60 10 0 -3 12 -23 26 -45 l27 -40 249 0 249 0 -3 47 c-3 51 -20 65
-40 34z"/>
<path d="M4884 1040 c1 -12 -16 -16 -80 -21 -45 -3 -86 -9 -92 -13 -6 -3 -9 1
-7 11 1 10 8 17 15 15 6 -1 9 2 5 8 -3 6 -9 9 -13 7 -87 -40 -92 -51 -92 -232
0 -193 15 -221 128 -240 l42 -7 0 49 c0 36 -5 53 -20 66 -18 15 -20 29 -20
131 0 143 2 146 106 146 l74 0 0 50 c0 46 -2 50 -24 48 -14 -1 -23 -8 -22 -18z"/>
<path d="M4970 1010 c0 -36 4 -52 15 -56 12 -5 15 -30 15 -140 0 -129 -1 -135
-22 -143 -21 -8 -21 -8 3 -14 37 -11 5 -27 -53 -27 -37 0 -50 4 -58 20 -21 39
-40 24 -40 -31 l0 -52 108 5 c185 8 202 28 202 236 0 181 -12 212 -88 236 -26
9 -27 -11 -2 -31 13 -10 11 -11 -7 -6 -12 3 -29 16 -38 29 -24 37 -35 29 -35
-26z"/>
<path d="M5164 1035 c9 -14 23 -36 32 -50 l16 -25 178 0 c98 0 185 -3 194 -6
23 -9 22 -90 -1 -103 -17 -9 -17 -10 -1 -16 32 -13 8 -25 -48 -25 -41 0 -59 5
-74 20 -19 19 -60 28 -60 14 0 -14 163 -266 175 -270 6 -3 46 -4 88 -2 l76 3
-55 85 -55 84 40 19 c48 23 71 66 71 135 0 84 -26 126 -88 144 -20 6 -21 4
-11 -8 6 -8 10 -15 8 -17 -2 -1 -97 -1 -210 1 -188 3 -209 5 -227 23 -12 10
-31 19 -43 19 -20 0 -21 -1 -5 -25z"/>
<path d="M6084 1040 c1 -12 -16 -16 -80 -21 -45 -3 -86 -9 -92 -13 -6 -3 -9 1
-7 11 1 10 8 17 15 15 6 -1 9 2 5 8 -3 6 -9 9 -13 7 -87 -40 -92 -51 -92 -232
0 -193 15 -221 128 -240 l42 -7 0 49 c0 36 -5 53 -20 66 -18 15 -20 29 -20
131 0 143 2 146 106 146 l74 0 0 50 c0 46 -2 50 -24 48 -14 -1 -23 -8 -22 -18z"/>
<path d="M6170 1010 c0 -36 4 -52 15 -56 11 -4 15 -21 15 -55 l0 -49 70 0 70
0 0 50 c0 69 -20 113 -61 133 -37 18 -61 3 -31 -19 15 -12 15 -12 -5 -7 -12 3
-29 16 -38 29 -24 37 -35 29 -35 -26z"/>
<path d="M6364 1035 c9 -14 23 -36 32 -50 l16 -25 250 0 249 0 -3 47 c-2 35
-7 49 -20 51 -9 2 -19 -5 -23 -17 -6 -20 -13 -21 -219 -21 -198 0 -214 1 -234
20 -12 11 -31 20 -43 20 -20 0 -21 -1 -5 -25z"/>
<path d="M3397 1036 c-12 -10 -68 -15 -190 -19 -99 -2 -186 -10 -205 -17 -28
-11 -35 -10 -45 4 -7 8 -17 12 -23 8 -27 -18 -34 -56 -34 -197 0 -220 14 -236
218 -243 l122 -4 0 46 c0 48 -9 57 -30 31 -17 -21 -158 -21 -186 -1 -18 14
-18 15 5 24 16 6 20 11 13 16 -15 9 -16 229 -2 257 10 18 23 19 195 19 l185 0
0 45 c0 25 -1 45 -2 45 -2 0 -11 -7 -21 -14z"/>
<path d="M3450 1039 c0 -6 9 -27 21 -45 l21 -34 244 0 244 0 0 40 c0 41 -7 49
-27 29 -7 -7 -85 -10 -228 -9 -171 0 -223 4 -246 16 -20 10 -29 11 -29 3z"/>
<path d="M2250 1035 c0 -4 9 -23 21 -41 l21 -34 181 0 c100 0 188 -4 195 -8 9
-7 12 -42 10 -143 -2 -109 0 -136 12 -146 26 -22 -7 -33 -98 -33 -64 0 -84 3
-88 15 -4 8 -12 15 -20 15 -10 0 -14 -13 -14 -46 l0 -46 128 4 c211 7 225 24
220 259 -3 136 -5 150 -24 170 l-22 21 -11 -20 c-10 -20 -12 -20 -43 -4 -26
13 -77 18 -228 23 -107 3 -205 9 -217 14 -13 4 -23 4 -23 0z"/>
<path d="M1740 747 l0 -177 243 0 242 0 -4 51 -3 51 -22 -21 c-21 -19 -34 -21
-179 -21 -110 0 -158 4 -163 12 -4 6 -2 14 4 16 15 5 17 262 2 262 -5 0 -10
-7 -10 -15 0 -9 -11 -21 -25 -27 -22 -10 -29 -8 -55 17 l-30 29 0 -177z"/>
<path d="M2300 745 l0 -175 65 0 65 0 0 175 c0 110 -4 175 -10 175 -5 0 -10
-7 -10 -15 0 -24 -43 -39 -69 -26 -11 7 -21 18 -21 26 0 8 -4 15 -10 15 -6 0
-10 -65 -10 -175z"/>
<path d="M3500 745 l0 -175 243 0 242 0 -4 51 -3 51 -22 -21 c-21 -19 -34 -21
-179 -21 -110 0 -158 4 -163 12 -4 6 -2 14 4 16 15 5 17 262 2 262 -5 0 -10
-7 -10 -15 0 -19 -36 -38 -60 -30 -10 3 -22 15 -25 26 -17 53 -25 5 -25 -156z"/>
<path d="M4060 745 l0 -175 65 0 65 0 0 175 c0 153 -2 175 -16 175 -9 0 -18
-9 -21 -20 -3 -13 -14 -20 -28 -20 -14 0 -25 7 -28 20 -3 11 -12 20 -21 20
-14 0 -16 -22 -16 -175z"/>
<path d="M5220 745 l0 -175 65 0 65 0 0 175 c0 145 -2 175 -14 175 -8 0 -18
-9 -21 -20 -4 -12 -15 -20 -30 -20 -14 0 -25 7 -28 20 -3 11 -12 20 -21 20
-14 0 -16 -22 -16 -175z"/>
<path d="M6420 745 l0 -175 246 0 245 0 -3 47 c-2 37 -7 49 -21 51 -12 3 -20
-4 -24 -17 -5 -20 -12 -21 -152 -21 -81 0 -151 3 -154 7 -4 3 1 12 11 19 16
13 16 13 0 14 -16 0 -18 13 -18 125 0 102 -3 125 -14 125 -8 0 -18 -9 -21 -20
-4 -12 -15 -20 -30 -20 -14 0 -25 7 -28 20 -3 11 -12 20 -21 20 -14 0 -16 -22
-16 -175z"/>
<path d="M1965 800 l49 -50 101 0 c56 0 104 2 106 4 2 3 3 25 1 50 -4 45 -4
45 -21 24 -16 -19 -27 -21 -101 -19 -59 2 -94 8 -121 22 -62 31 -66 22 -14
-31z"/>
<path d="M3142 800 c33 -49 34 -50 86 -50 l52 0 0 -90 0 -90 70 0 70 0 0 142
0 142 -30 -29 c-29 -28 -30 -28 -116 -21 -62 4 -94 12 -114 26 -46 33 -52 23
-18 -30z"/>
<path d="M3725 800 l49 -50 101 0 c56 0 104 2 106 4 2 3 3 25 1 50 -4 45 -4
45 -21 24 -16 -19 -27 -21 -101 -19 -59 2 -94 8 -121 22 -62 31 -66 22 -14
-31z"/>
<path d="M4285 800 l49 -50 109 0 108 0 -3 47 c-2 35 -7 49 -20 51 -9 2 -19
-5 -23 -17 -6 -19 -14 -21 -83 -21 -60 0 -84 5 -107 20 -16 11 -41 20 -55 20
-22 0 -21 -4 25 -50z"/>
<path d="M6645 800 l49 -50 109 0 108 0 -3 48 c-3 40 -6 47 -26 50 -12 2 -22
0 -21 -5 5 -29 -4 -33 -74 -33 -53 0 -82 5 -110 20 -20 11 -47 20 -59 20 -19
0 -16 -7 27 -50z"/>
<path d="M6200 729 c0 -44 -3 -52 -22 -57 -21 -5 -21 -5 3 -14 22 -8 22 -10 6
-19 -28 -16 -112 -7 -111 11 1 10 -8 17 -22 18 -22 2 -24 -2 -24 -49 l0 -52
108 5 c161 7 202 38 202 153 0 47 -3 55 -19 55 -10 0 -21 -9 -24 -20 -3 -12
-14 -20 -27 -20 -13 0 -24 8 -27 20 -3 11 -14 20 -24 20 -16 0 -19 -8 -19 -51z"/>
<path d="M2632 364 c-33 -23 -24 -54 25 -87 57 -38 50 -62 -16 -53 l-46 6 24
-20 c48 -41 97 -14 92 51 0 8 -18 24 -38 35 -46 24 -50 48 -8 51 49 2 51 3 31
18 -25 19 -36 19 -64 -1z"/>
<path d="M3048 365 c-67 -37 -65 -125 3 -161 89 -45 179 71 109 141 -32 31
-77 39 -112 20z m101 -41 c12 -15 21 -32 21 -39 0 -7 -9 -24 -21 -39 -39 -50
-129 -23 -129 39 0 62 90 89 129 39z"/>
<path d="M3480 285 l0 -95 45 0 c33 0 45 4 45 15 0 10 -11 15 -35 15 l-35 0 0
80 c0 47 -4 80 -10 80 -6 0 -10 -38 -10 -95z"/>
<path d="M3840 307 c0 -92 12 -112 70 -112 58 0 70 20 70 112 0 42 -4 73 -10
73 -6 0 -10 -29 -10 -68 0 -74 -10 -92 -50 -92 -40 0 -50 18 -50 92 0 39 -4
68 -10 68 -6 0 -10 -31 -10 -73z"/>
<path d="M4260 365 c0 -9 9 -15 25 -15 25 0 25 -1 25 -80 0 -47 4 -80 10 -80
6 0 10 33 10 80 0 79 0 80 25 80 16 0 25 6 25 15 0 12 -13 15 -60 15 -47 0
-60 -3 -60 -15z"/>
<path d="M4660 285 c0 -57 4 -95 10 -95 6 0 10 38 10 95 0 57 -4 95 -10 95 -6
0 -10 -38 -10 -95z"/>
<path d="M5035 371 c-59 -25 -78 -100 -36 -145 31 -33 72 -41 110 -22 69 36
70 125 1 161 -32 17 -45 18 -75 6z m85 -41 c43 -43 10 -110 -54 -110 -25 0
-40 7 -55 26 -12 15 -21 32 -21 39 0 7 9 24 21 39 26 33 79 36 109 6z"/>
<path d="M5590 313 l0 -67 -47 45 c-95 90 -88 91 -88 -12 0 -49 3 -89 8 -89 8
0 8 0 12 70 1 30 3 57 4 59 0 2 28 -21 60 -52 33 -32 62 -57 65 -57 3 0 6 38
6 85 0 50 -4 85 -10 85 -6 0 -10 -29 -10 -67z"/>
<path d="M5928 369 c-11 -6 -18 -22 -18 -39 0 -24 7 -33 41 -50 27 -14 39 -27
37 -38 -4 -20 -44 -28 -63 -12 -9 7 -15 8 -19 1 -4 -6 5 -18 20 -27 24 -16 29
-16 53 -3 19 11 26 23 26 44 0 24 -7 34 -37 50 -51 27 -51 55 -2 55 31 0 35 2
24 15 -14 17 -37 19 -62 4z"/>
</g>
</svg>
